<svg width="1440" height="800" viewBox="0 0 1440 800" fill="none" xmlns="http://www.w3.org/2000/svg">
<path d="M287.099 398.545C197.248 469.164 73.3581 474.438 2 464.532V799H1440V556.208C1426.16 556.208 1402.33 551.439 1378.98 556.208C1327.01 566.824 1265.62 647.65 1213.5 657.5C1086.5 681.5 953.5 509 953.5 509C953.5 509 859.91 407.864 796.5 346.5C734.5 286.5 675.824 252.5 549.5 252.5C447.478 252.5 349.5 349.5 287.099 398.545Z" fill="#FDF6EE"/>
<path d="M392 1C420.419 32.5504 494.606 94.1487 564.008 88.1391C650.759 80.6271 710 56 784.377 79.1247C830.677 93.5199 826.257 138.219 868.137 170.771C910.017 203.323 1092.49 124.197 1092.49 124.197C1092.49 124.197 1221.13 66.6047 1233.59 124.197C1246.06 181.789 1194.7 250.398 1218.14 264.421C1236.88 275.638 1373.86 224.357 1440 197.313" stroke="#E17A0E" stroke-opacity="0.24"/>
<path d="M0 632.669C28.934 608.526 78.6557 573.244 137.925 557.243C205.5 539 322.663 525.964 371.172 600.201C395.132 636.869 369.128 678.5 398 710.5C426.691 742.299 474.941 721.863 511.5 739C543.5 754 552 780.5 567 799" stroke="#E4E4E4"/>
</svg>
