<svg width="1440" height="800" viewBox="0 0 1440 800" fill="none" xmlns="http://www.w3.org/2000/svg">
<path d="M287.099 398.545C197.248 469.164 73.3581 474.438 2 464.532V799H1440V556.208C1426.16 556.208 1402.33 551.439 1378.98 556.208C1327.01 566.824 1265.62 647.65 1213.5 657.5C1086.5 681.5 953.5 509 953.5 509C953.5 509 859.91 407.864 796.5 346.5C734.5 286.5 675.824 252.5 549.5 252.5C447.478 252.5 349.5 349.5 287.099 398.545Z" fill="#FDF6EE"/>
<path d="M392 1C420.419 32.5504 494.606 94.1487 564.008 88.1391C650.759 80.6271 710 56 784.377 79.1247C830.677 93.5199 826.257 138.219 868.137 170.771C910.017 203.323 1092.49 124.197 1092.49 124.197C1092.49 124.197 1221.13 66.6047 1233.59 124.197C1246.06 181.789 1194.7 250.398 1218.14 264.421C1236.88 275.638 1373.86 224.357 1440 197.313" stroke="#E17A0E" stroke-opacity="0.24"/>
<path d="M0 632.669C28.934 608.526 78.6557 573.244 137.925 557.243C205.5 539 322.663 525.964 371.172 600.201C395.132 636.869 369.128 678.5 398 710.5C426.691 742.299 474.941 721.863 511.5 739C543.5 754 552 780.5 567 799" stroke="#E4E4E4"/>
<path d="M92.3297 456.798C91.7908 454.553 93.8849 452.566 96.0992 453.222L102.742 455.19C104.956 455.846 105.63 458.653 103.954 460.243L98.9285 465.012C97.2532 466.601 94.4854 465.781 93.9465 463.535L92.3297 456.798Z" fill="#9AB1EC"/>
<path d="M1165.47 669.936C1164.93 667.69 1167.02 665.703 1169.24 666.359L1175.88 668.327C1178.09 668.984 1178.77 671.791 1177.09 673.38L1172.07 678.149C1170.39 679.738 1167.62 678.918 1167.08 676.673L1165.47 669.936Z" fill="#EC9AC1"/>
<path d="M882.467 226.936C881.928 224.69 884.022 222.703 886.236 223.359L892.879 225.327C895.093 225.984 895.767 228.791 894.092 230.38L889.066 235.149C887.39 236.738 884.623 235.918 884.084 233.673L882.467 226.936Z" fill="#A6EC9A"/>
<circle cx="585.5" cy="183.5" r="4.5" fill="#FFD6D6"/>
<circle cx="1309.5" cy="144.5" r="4.5" fill="#F9D6FF"/>
</svg>
